<svg xmlns="http://www.w3.org/2000/svg" xmlns:xlink="http://www.w3.org/1999/xlink" width="500" zoomAndPan="magnify" viewBox="0 0 375 374.999991" height="500" preserveAspectRatio="xMidYMid meet" version="1.0"><defs><clipPath id="id1"><path d="M 70.40625 87.3125 L 270.65625 87.3125 L 270.65625 287.5625 L 70.40625 287.5625 Z M 70.40625 87.3125 " clip-rule="nonzero"/></clipPath><clipPath id="id2"><path d="M 158.21875 137 L 304.46875 137 L 304.46875 283 L 158.21875 283 Z M 158.21875 137 " clip-rule="nonzero"/></clipPath><clipPath id="id3"><path d="M 158.21875 136.886719 L 304.46875 136.886719 L 304.46875 283.136719 L 158.21875 283.136719 Z M 158.21875 136.886719 " clip-rule="nonzero"/></clipPath></defs><path fill="#ffffff" d="M 170.53125 145.953125 L 170.53125 187.4375 L 156.703125 187.4375 L 156.703125 201.265625 L 129.050781 201.265625 L 129.050781 187.4375 L 115.226562 187.4375 L 115.226562 145.953125 L 129.050781 145.953125 L 129.050781 132.132812 L 156.703125 132.132812 L 156.703125 145.953125 Z M 170.53125 145.953125 " fill-opacity="1" fill-rule="nonzero"/><path fill="#ffffff" d="M 156.714844 145.953125 L 156.714844 132.136719 L 129.046875 132.136719 L 129.046875 145.953125 L 115.230469 145.953125 L 115.230469 187.4375 L 129.046875 187.4375 L 129.046875 201.253906 L 156.714844 201.253906 L 156.714844 187.4375 L 170.53125 187.4375 L 170.53125 145.953125 Z M 156.714844 145.953125 " fill-opacity="1" fill-rule="nonzero"/><path fill="#ffffff" d="M 253.503906 145.953125 L 253.503906 187.4375 L 239.652344 187.4375 L 239.652344 201.253906 L 212.015625 201.253906 L 212.015625 187.4375 L 198.199219 187.4375 L 198.199219 145.953125 L 212.015625 145.953125 L 212.015625 132.136719 L 239.652344 132.136719 L 239.652344 145.953125 Z M 253.503906 145.953125 " fill-opacity="1" fill-rule="nonzero"/><path fill="#336a93" d="M 129.050781 201.265625 L 156.703125 201.265625 L 156.703125 173.609375 L 129.050781 173.609375 Z M 129.050781 201.265625 " fill-opacity="1" fill-rule="nonzero"/><path fill="#336a93" d="M 212.015625 201.265625 L 239.671875 201.265625 L 239.671875 173.609375 L 212.015625 173.609375 Z M 212.015625 201.265625 " fill-opacity="1" fill-rule="nonzero"/><path fill="#ffffff" d="M 170.53125 145.953125 L 170.53125 187.4375 L 156.703125 187.4375 L 156.703125 201.265625 L 129.050781 201.265625 L 129.050781 187.4375 L 115.226562 187.4375 L 115.226562 145.953125 L 129.050781 145.953125 L 129.050781 132.132812 L 156.703125 132.132812 L 156.703125 145.953125 Z M 170.53125 145.953125 " fill-opacity="1" fill-rule="nonzero"/><path fill="#ffffff" d="M 156.714844 145.953125 L 156.714844 132.136719 L 129.046875 132.136719 L 129.046875 145.953125 L 115.230469 145.953125 L 115.230469 187.4375 L 129.046875 187.4375 L 129.046875 201.253906 L 156.714844 201.253906 L 156.714844 187.4375 L 170.53125 187.4375 L 170.53125 145.953125 Z M 156.714844 145.953125 " fill-opacity="1" fill-rule="nonzero"/><path fill="#008f9b" d="M 239.652344 145.953125 L 253.5 145.953125 L 253.5 132.136719 L 239.652344 132.136719 Z M 239.652344 145.953125 " fill-opacity="1" fill-rule="nonzero"/><path fill="#ffffff" d="M 253.503906 145.953125 L 253.503906 187.4375 L 239.652344 187.4375 L 239.652344 201.253906 L 212.015625 201.253906 L 212.015625 187.4375 L 198.199219 187.4375 L 198.199219 145.953125 L 212.015625 145.953125 L 212.015625 132.136719 L 239.652344 132.136719 L 239.652344 145.953125 Z M 253.503906 145.953125 " fill-opacity="1" fill-rule="nonzero"/><path fill="#008f9b" d="M 253.503906 159.769531 L 253.503906 187.4375 L 239.652344 187.4375 L 239.652344 173.621094 L 212.015625 173.621094 L 212.015625 187.4375 L 198.199219 187.4375 L 198.199219 145.953125 L 212.015625 145.953125 L 212.015625 132.136719 L 239.652344 132.136719 L 239.652344 118.320312 L 225.832031 118.320312 L 225.832031 104.464844 L 212.015625 104.464844 L 212.015625 90.648438 L 129.046875 90.648438 L 129.046875 104.464844 L 115.230469 104.464844 L 115.230469 118.320312 L 101.414062 118.320312 L 101.414062 132.136719 L 87.558594 132.136719 L 87.558594 159.769531 L 73.742188 159.769531 L 73.742188 270.40625 L 87.558594 270.40625 L 87.558594 284.222656 L 115.230469 284.222656 L 115.230469 270.40625 L 129.046875 270.40625 L 129.046875 256.554688 L 142.863281 256.554688 L 142.863281 270.40625 L 156.714844 270.40625 L 156.714844 284.222656 L 184.347656 284.222656 L 184.347656 270.40625 L 198.199219 270.40625 L 198.199219 256.554688 L 212.015625 256.554688 L 212.015625 270.40625 L 225.832031 270.40625 L 225.832031 284.222656 L 253.5 284.222656 L 253.5 270.40625 L 267.316406 270.40625 L 267.316406 159.769531 Z M 170.53125 187.4375 L 156.714844 187.4375 L 156.714844 173.621094 L 129.046875 173.621094 L 129.046875 187.4375 L 115.230469 187.4375 L 115.230469 145.953125 L 129.046875 145.953125 L 129.046875 132.136719 L 156.714844 132.136719 L 156.714844 145.953125 L 170.53125 145.953125 Z M 170.53125 187.4375 " fill-opacity="1" fill-rule="nonzero"/><path fill="#00c2d7" d="M 253.503906 159.769531 L 253.503906 187.4375 L 226.300781 187.4375 L 226.300781 173.621094 L 212.015625 173.621094 L 212.015625 187.4375 L 184.851562 187.4375 L 184.851562 145.953125 L 198.667969 145.953125 L 198.667969 132.136719 L 226.300781 132.136719 L 226.300781 118.320312 L 212.484375 118.320312 L 212.484375 104.464844 L 198.667969 104.464844 L 198.667969 90.648438 L 129.046875 90.648438 L 129.046875 104.464844 L 115.230469 104.464844 L 115.230469 118.320312 L 101.414062 118.320312 L 101.414062 132.136719 L 87.558594 132.136719 L 87.558594 159.769531 L 73.742188 159.769531 L 73.742188 270.40625 L 87.558594 270.40625 L 87.558594 284.222656 L 101.878906 284.222656 L 101.878906 270.40625 L 115.695312 270.40625 L 115.695312 256.554688 L 142.863281 256.554688 L 142.863281 270.40625 L 156.714844 270.40625 L 156.714844 284.222656 L 170.996094 284.222656 L 170.996094 270.40625 L 184.851562 270.40625 L 184.851562 256.554688 L 212.015625 256.554688 L 212.015625 270.40625 L 225.832031 270.40625 L 225.832031 284.222656 L 240.152344 284.222656 L 240.152344 270.40625 L 253.96875 270.40625 L 253.96875 159.769531 Z M 170.53125 187.4375 L 143.363281 187.4375 L 143.363281 173.621094 L 129.046875 173.621094 L 129.046875 187.4375 L 101.878906 187.4375 L 101.878906 145.953125 L 115.695312 145.953125 L 115.695312 132.136719 L 156.714844 132.136719 L 156.714844 145.953125 L 170.53125 145.953125 Z M 170.53125 187.4375 " fill-opacity="1" fill-rule="nonzero"/><path fill="#000000" d="M 129.050781 201.265625 L 156.703125 201.265625 L 156.703125 173.609375 L 129.050781 173.609375 Z M 129.050781 201.265625 " fill-opacity="1" fill-rule="nonzero"/><path fill="#000000" d="M 212.015625 201.265625 L 239.671875 201.265625 L 239.671875 173.609375 L 212.015625 173.609375 Z M 212.015625 201.265625 " fill-opacity="1" fill-rule="nonzero"/><path fill="#000000" d="M 170.53125 142.617188 L 160.042969 142.617188 L 160.042969 132.128906 C 160.042969 131.246094 159.691406 130.394531 159.066406 129.769531 C 158.441406 129.144531 157.589844 128.792969 156.707031 128.792969 L 129.050781 128.792969 C 128.164062 128.792969 127.316406 129.144531 126.691406 129.769531 C 126.066406 130.394531 125.710938 131.246094 125.714844 132.128906 L 125.714844 142.617188 L 115.226562 142.617188 C 114.339844 142.617188 113.488281 142.972656 112.863281 143.597656 C 112.238281 144.222656 111.886719 145.070312 111.886719 145.957031 L 111.886719 187.4375 C 111.886719 188.324219 112.238281 189.171875 112.863281 189.796875 C 113.488281 190.421875 114.339844 190.777344 115.226562 190.773438 L 125.714844 190.773438 L 125.714844 201.261719 C 125.710938 202.148438 126.066406 203 126.691406 203.625 C 127.316406 204.25 128.164062 204.601562 129.050781 204.601562 L 156.707031 204.601562 C 157.589844 204.601562 158.441406 204.25 159.066406 203.625 C 159.691406 203 160.042969 202.148438 160.042969 201.261719 L 160.042969 190.773438 L 170.53125 190.773438 C 171.417969 190.777344 172.265625 190.421875 172.890625 189.796875 C 173.519531 189.171875 173.871094 188.320312 173.867188 187.4375 L 173.867188 145.957031 C 173.871094 145.070312 173.519531 144.222656 172.890625 143.597656 C 172.265625 142.972656 171.417969 142.617188 170.53125 142.617188 Z M 153.367188 197.925781 L 132.386719 197.925781 L 132.386719 176.949219 L 153.367188 176.949219 Z M 167.195312 184.101562 L 160.042969 184.101562 L 160.042969 173.613281 C 160.042969 172.726562 159.691406 171.875 159.066406 171.25 C 158.441406 170.625 157.589844 170.273438 156.707031 170.273438 L 129.050781 170.273438 C 128.164062 170.273438 127.316406 170.625 126.691406 171.25 C 126.066406 171.875 125.714844 172.726562 125.714844 173.613281 L 125.714844 184.101562 L 118.5625 184.101562 L 118.5625 149.292969 L 129.050781 149.292969 C 129.9375 149.292969 130.785156 148.945312 131.410156 148.316406 C 132.039062 147.691406 132.390625 146.839844 132.390625 145.957031 L 132.390625 135.46875 L 153.371094 135.46875 L 153.371094 145.957031 C 153.371094 146.84375 153.71875 147.691406 154.34375 148.316406 C 154.972656 148.945312 155.820312 149.292969 156.707031 149.292969 L 167.195312 149.292969 Z M 167.195312 184.101562 " fill-opacity="1" fill-rule="nonzero"/><g clip-path="url(#id1)"><path fill="#000000" d="M 267.320312 156.445312 L 256.832031 156.445312 L 256.832031 132.128906 C 256.832031 131.246094 256.480469 130.394531 255.851562 129.769531 C 255.226562 129.144531 254.378906 128.792969 253.492188 128.792969 L 243 128.792969 L 243 118.304688 C 243 117.421875 242.652344 116.570312 242.023438 115.945312 C 241.398438 115.316406 240.550781 114.96875 239.664062 114.96875 L 229.175781 114.96875 L 229.175781 104.476562 C 229.175781 103.589844 228.824219 102.742188 228.199219 102.117188 C 227.574219 101.488281 226.722656 101.136719 225.839844 101.136719 L 215.351562 101.136719 L 215.351562 90.648438 C 215.351562 89.765625 215 88.914062 214.371094 88.289062 C 213.746094 87.664062 212.898438 87.3125 212.011719 87.3125 L 129.050781 87.3125 C 128.164062 87.3125 127.316406 87.664062 126.691406 88.289062 C 126.066406 88.914062 125.710938 89.765625 125.714844 90.648438 L 125.714844 101.136719 L 115.226562 101.136719 C 114.339844 101.136719 113.488281 101.488281 112.863281 102.117188 C 112.238281 102.742188 111.886719 103.589844 111.886719 104.476562 L 111.886719 114.96875 L 101.398438 114.96875 C 100.515625 114.96875 99.664062 115.316406 99.039062 115.945312 C 98.410156 116.570312 98.0625 117.421875 98.0625 118.304688 L 98.0625 128.792969 L 87.570312 128.792969 C 86.683594 128.792969 85.835938 129.144531 85.210938 129.769531 C 84.582031 130.394531 84.230469 131.246094 84.230469 132.128906 L 84.230469 156.445312 L 73.742188 156.445312 C 72.859375 156.445312 72.007812 156.796875 71.382812 157.421875 C 70.757812 158.050781 70.40625 158.894531 70.40625 159.78125 L 70.40625 270.398438 C 70.40625 271.285156 70.757812 272.132812 71.382812 272.757812 C 72.007812 273.382812 72.859375 273.738281 73.742188 273.738281 L 84.230469 273.738281 L 84.230469 284.222656 C 84.230469 285.109375 84.582031 285.960938 85.210938 286.585938 C 85.835938 287.210938 86.683594 287.5625 87.570312 287.5625 L 115.222656 287.5625 C 116.109375 287.5625 116.960938 287.210938 117.585938 286.585938 C 118.210938 285.960938 118.5625 285.109375 118.5625 284.222656 L 118.5625 273.738281 L 129.050781 273.738281 C 129.933594 273.738281 130.785156 273.386719 131.410156 272.757812 C 132.039062 272.132812 132.386719 271.285156 132.386719 270.398438 L 132.386719 259.90625 L 139.539062 259.90625 L 139.539062 270.398438 C 139.539062 271.285156 139.890625 272.132812 140.515625 272.757812 C 141.140625 273.386719 141.992188 273.738281 142.875 273.738281 L 153.367188 273.738281 L 153.367188 284.226562 C 153.367188 285.109375 153.71875 285.960938 154.34375 286.585938 C 154.96875 287.210938 155.820312 287.5625 156.703125 287.5625 L 184.355469 287.5625 C 185.242188 287.5625 186.089844 287.210938 186.71875 286.585938 C 187.34375 285.960938 187.695312 285.109375 187.695312 284.226562 L 187.695312 273.738281 L 198.1875 273.738281 C 199.070312 273.738281 199.921875 273.386719 200.546875 272.757812 C 201.171875 272.132812 201.523438 271.285156 201.523438 270.398438 L 201.523438 259.90625 L 208.671875 259.90625 L 208.671875 270.398438 C 208.671875 271.285156 209.023438 272.132812 209.652344 272.757812 C 210.277344 273.386719 211.125 273.738281 212.011719 273.738281 L 222.5 273.738281 L 222.5 284.226562 C 222.5 285.109375 222.851562 285.960938 223.476562 286.585938 C 224.101562 287.210938 224.953125 287.5625 225.835938 287.5625 L 253.492188 287.5625 C 254.375 287.5625 255.226562 287.210938 255.851562 286.585938 C 256.480469 285.960938 256.828125 285.109375 256.828125 284.226562 L 256.828125 273.738281 L 267.316406 273.738281 C 268.203125 273.738281 269.050781 273.386719 269.679688 272.757812 C 270.304688 272.132812 270.65625 271.285156 270.65625 270.398438 L 270.65625 159.78125 C 270.65625 158.894531 270.304688 158.050781 269.679688 157.421875 C 269.054688 156.796875 268.203125 156.445312 267.320312 156.445312 Z M 243 184.101562 L 243 173.613281 C 243 172.726562 242.652344 171.875 242.023438 171.25 C 241.398438 170.625 240.550781 170.273438 239.664062 170.273438 L 212.011719 170.273438 C 211.128906 170.273438 210.277344 170.625 209.652344 171.25 C 209.027344 171.875 208.675781 172.726562 208.675781 173.613281 L 208.675781 184.101562 L 201.523438 184.101562 L 201.523438 149.292969 L 212.015625 149.292969 C 212.898438 149.292969 213.746094 148.945312 214.371094 148.316406 C 215 147.691406 215.351562 146.839844 215.351562 145.957031 L 215.351562 135.46875 L 236.324219 135.46875 L 236.324219 145.957031 C 236.324219 146.84375 236.679688 147.691406 237.304688 148.316406 C 237.929688 148.945312 238.777344 149.292969 239.664062 149.292969 L 250.15625 149.292969 L 250.15625 184.101562 Z M 215.351562 187.4375 L 215.351562 176.949219 L 236.324219 176.949219 L 236.324219 197.925781 L 215.351562 197.925781 Z M 250.15625 142.617188 L 243 142.617188 L 243 135.46875 L 250.15625 135.46875 Z M 263.980469 267.0625 L 253.492188 267.0625 C 252.609375 267.0625 251.757812 267.410156 251.132812 268.039062 C 250.507812 268.664062 250.15625 269.515625 250.15625 270.398438 L 250.15625 280.886719 L 229.175781 280.886719 L 229.175781 270.398438 C 229.175781 269.515625 228.824219 268.664062 228.199219 268.039062 C 227.574219 267.410156 226.722656 267.0625 225.835938 267.0625 L 215.347656 267.0625 L 215.347656 256.570312 C 215.351562 255.683594 215 254.835938 214.371094 254.210938 C 213.746094 253.582031 212.898438 253.230469 212.011719 253.230469 L 198.1875 253.230469 C 197.300781 253.230469 196.449219 253.582031 195.824219 254.210938 C 195.199219 254.835938 194.847656 255.683594 194.851562 256.570312 L 194.851562 267.0625 L 184.355469 267.0625 C 183.472656 267.0625 182.625 267.410156 181.996094 268.039062 C 181.371094 268.664062 181.019531 269.515625 181.019531 270.398438 L 181.019531 280.886719 L 160.042969 280.886719 L 160.042969 270.398438 C 160.042969 269.515625 159.691406 268.664062 159.066406 268.039062 C 158.441406 267.410156 157.589844 267.0625 156.707031 267.0625 L 146.214844 267.0625 L 146.214844 256.570312 C 146.214844 255.683594 145.863281 254.835938 145.238281 254.210938 C 144.613281 253.582031 143.761719 253.230469 142.875 253.230469 L 129.050781 253.230469 C 128.164062 253.230469 127.316406 253.582031 126.691406 254.210938 C 126.066406 254.835938 125.714844 255.683594 125.714844 256.570312 L 125.714844 267.0625 L 115.226562 267.0625 C 114.339844 267.0625 113.488281 267.410156 112.863281 268.039062 C 112.238281 268.664062 111.886719 269.515625 111.890625 270.398438 L 111.890625 280.886719 L 90.90625 280.886719 L 90.90625 270.398438 C 90.90625 269.515625 90.558594 268.664062 89.929688 268.039062 C 89.304688 267.410156 88.453125 267.0625 87.570312 267.0625 L 77.082031 267.0625 L 77.082031 163.121094 L 87.570312 163.121094 C 88.453125 163.121094 89.304688 162.769531 89.929688 162.144531 C 90.558594 161.515625 90.90625 160.667969 90.90625 159.78125 L 90.90625 135.46875 L 101.398438 135.46875 C 102.285156 135.46875 103.132812 135.117188 103.757812 134.492188 C 104.386719 133.863281 104.738281 133.015625 104.738281 132.132812 L 104.738281 121.644531 L 115.226562 121.644531 C 116.109375 121.644531 116.960938 121.292969 117.585938 120.664062 C 118.210938 120.039062 118.5625 119.191406 118.5625 118.304688 L 118.5625 107.8125 L 129.050781 107.8125 C 129.9375 107.8125 130.785156 107.464844 131.410156 106.835938 C 132.039062 106.210938 132.386719 105.359375 132.386719 104.476562 L 132.386719 93.988281 L 208.675781 93.988281 L 208.675781 104.476562 C 208.675781 105.359375 209.027344 106.210938 209.652344 106.835938 C 210.277344 107.464844 211.128906 107.8125 212.011719 107.8125 L 222.5 107.8125 L 222.5 118.304688 C 222.5 119.191406 222.851562 120.039062 223.476562 120.664062 C 224.105469 121.292969 224.953125 121.644531 225.835938 121.644531 L 236.324219 121.644531 L 236.324219 128.792969 L 212.011719 128.792969 C 211.125 128.792969 210.277344 129.144531 209.652344 129.769531 C 209.027344 130.394531 208.675781 131.246094 208.675781 132.128906 L 208.675781 142.617188 L 198.1875 142.617188 C 197.300781 142.617188 196.449219 142.972656 195.824219 143.597656 C 195.199219 144.222656 194.847656 145.070312 194.851562 145.957031 L 194.851562 187.4375 C 194.847656 188.324219 195.199219 189.171875 195.824219 189.796875 C 196.453125 190.421875 197.300781 190.777344 198.1875 190.773438 L 208.675781 190.773438 L 208.675781 201.261719 C 208.675781 202.148438 209.027344 203 209.652344 203.625 C 210.277344 204.25 211.128906 204.601562 212.011719 204.601562 L 239.664062 204.601562 C 240.550781 204.601562 241.398438 204.25 242.023438 203.625 C 242.648438 203 243 202.148438 243 201.261719 L 243 190.773438 L 253.492188 190.773438 C 254.378906 190.777344 255.226562 190.421875 255.851562 189.796875 C 256.480469 189.171875 256.832031 188.320312 256.832031 187.4375 L 256.832031 163.121094 L 263.980469 163.121094 Z M 263.980469 267.0625 " fill-opacity="1" fill-rule="nonzero"/></g><g clip-path="url(#id2)"><path fill="#f9be62" d="M 298.335938 137.050781 L 280.804688 137.050781 L 280.804688 142.878906 L 274.96875 142.878906 L 274.96875 148.714844 L 269.132812 148.714844 L 269.132812 154.546875 L 263.300781 154.546875 L 263.300781 160.378906 L 257.472656 160.378906 L 257.472656 166.214844 L 251.640625 166.214844 L 251.640625 172.046875 L 245.804688 172.046875 L 245.804688 177.882812 L 239.976562 177.882812 L 239.976562 183.710938 L 234.140625 183.710938 L 234.140625 189.546875 L 228.308594 189.546875 L 228.308594 195.378906 L 222.476562 195.378906 L 222.476562 201.21875 L 216.640625 201.21875 L 216.640625 207.054688 L 210.808594 207.054688 L 210.808594 212.886719 L 204.972656 212.886719 L 204.972656 218.722656 L 193.378906 218.722656 L 193.378906 212.875 L 187.542969 212.875 L 187.542969 207.042969 L 175.8125 207.042969 L 175.8125 212.875 L 169.980469 212.875 L 169.980469 218.769531 L 175.8125 218.769531 L 175.8125 224.609375 L 181.648438 224.609375 L 181.648438 230.441406 L 187.476562 230.441406 L 187.476562 242.039062 L 181.648438 242.039062 L 181.648438 247.875 L 175.8125 247.875 L 175.8125 253.707031 L 169.980469 253.707031 L 169.980469 259.535156 L 158.316406 259.535156 L 158.316406 282.9375 L 181.710938 282.9375 L 181.710938 271.273438 L 187.542969 271.273438 L 187.542969 265.4375 L 193.378906 265.4375 L 193.378906 259.609375 L 199.210938 259.609375 L 199.210938 253.773438 L 210.808594 253.773438 L 210.808594 259.609375 L 216.640625 259.609375 L 216.640625 265.445312 L 222.476562 265.445312 L 222.476562 271.277344 L 228.375 271.277344 L 228.375 265.4375 L 234.207031 265.4375 L 234.207031 253.707031 L 228.375 253.707031 L 228.375 247.875 L 222.550781 247.875 L 222.550781 236.277344 L 228.382812 236.277344 L 228.382812 230.441406 L 234.214844 230.441406 L 234.214844 224.609375 L 240.050781 224.609375 L 240.050781 218.769531 L 245.878906 218.769531 L 245.878906 212.945312 L 251.714844 212.945312 L 251.714844 207.113281 L 257.546875 207.113281 L 257.546875 201.277344 L 263.375 201.277344 L 263.375 195.445312 L 269.210938 195.445312 L 269.210938 189.613281 L 275.039062 189.613281 L 275.039062 183.777344 L 280.875 183.777344 L 280.875 177.949219 L 286.703125 177.949219 L 286.703125 172.113281 L 292.535156 172.113281 L 292.535156 166.28125 L 298.371094 166.28125 L 298.371094 160.453125 L 304.199219 160.453125 L 304.199219 137.050781 Z M 222.476562 230.40625 Z M 228.308594 224.574219 Z M 228.339844 201.285156 L 228.339844 207.085938 Z M 234.140625 218.757812 Z M 239.976562 212.921875 Z M 245.839844 189.582031 L 245.839844 183.777344 Z M 251.675781 183.746094 L 251.675781 177.949219 Z M 275.007812 154.617188 L 275.007812 160.417969 Z M 280.808594 172.078125 Z M 280.84375 148.789062 L 280.84375 154.582031 Z M 286.636719 166.253906 Z M 292.472656 160.425781 Z M 292.472656 160.425781 " fill-opacity="1" fill-rule="nonzero"/></g><path fill="#fdd182" d="M 286.910156 154.417969 L 286.910156 148.585938 L 280.746094 148.585938 L 280.746094 154.417969 L 274.910156 154.417969 L 274.910156 160.253906 L 269.078125 160.253906 L 269.078125 166.082031 L 263.242188 166.082031 L 263.242188 171.914062 L 257.414062 171.914062 L 257.414062 177.75 L 251.578125 177.75 L 251.578125 183.578125 L 245.742188 183.578125 L 245.742188 189.40625 L 239.914062 189.40625 L 239.914062 195.238281 L 234.078125 195.238281 L 234.078125 201.066406 L 228.246094 201.066406 L 228.246094 206.902344 L 222.417969 206.902344 L 222.417969 212.734375 L 216.582031 212.734375 L 216.582031 218.570312 L 210.738281 218.570312 L 210.738281 224.398438 L 204.914062 224.398438 L 204.914062 230.582031 L 210.738281 230.582031 L 210.738281 236.417969 L 216.910156 236.417969 L 216.910156 230.582031 L 222.753906 230.582031 L 222.753906 224.746094 L 228.585938 224.746094 L 228.585938 218.917969 L 234.417969 218.917969 L 234.417969 213.082031 L 240.253906 213.082031 L 240.253906 207.25 L 246.082031 207.25 L 246.082031 201.414062 L 251.917969 201.414062 L 251.917969 195.585938 L 257.75 195.585938 L 257.75 189.742188 L 263.578125 189.742188 L 263.578125 183.917969 L 269.414062 183.917969 L 269.414062 178.085938 L 275.246094 178.085938 L 275.246094 172.25 L 281.082031 172.25 L 281.082031 166.417969 L 286.910156 166.417969 L 286.910156 160.589844 L 292.757812 160.589844 L 292.757812 154.417969 Z M 216.582031 230.246094 L 211.078125 230.246094 L 211.078125 224.746094 L 216.570312 224.746094 Z M 222.417969 224.414062 L 216.917969 224.414062 L 216.917969 218.917969 L 222.417969 218.917969 Z M 228.246094 218.582031 L 222.753906 218.582031 L 222.753906 213.082031 L 228.246094 213.082031 Z M 234.078125 212.75 L 228.585938 212.75 L 228.585938 207.25 L 234.078125 207.25 Z M 239.914062 206.914062 L 234.417969 206.914062 L 234.417969 201.414062 L 239.914062 201.414062 Z M 245.742188 201.078125 L 240.253906 201.078125 L 240.253906 195.585938 L 245.742188 195.585938 Z M 251.578125 195.246094 L 246.082031 195.246094 L 246.082031 189.742188 L 251.578125 189.742188 Z M 257.414062 189.40625 L 251.917969 189.40625 L 251.917969 183.917969 L 257.414062 183.917969 Z M 263.242188 183.570312 L 257.75 183.570312 L 257.75 178.085938 L 263.242188 178.085938 Z M 269.078125 177.738281 L 263.578125 177.738281 L 263.578125 172.25 L 269.078125 172.25 Z M 274.910156 171.902344 L 269.414062 171.902344 L 269.414062 166.417969 L 274.910156 166.417969 Z M 280.746094 166.082031 L 275.246094 166.082031 L 275.246094 160.589844 L 280.746094 160.589844 Z M 286.574219 160.253906 L 281.082031 160.253906 L 281.082031 154.753906 L 286.574219 154.753906 Z M 286.574219 160.253906 " fill-opacity="1" fill-rule="nonzero"/><path fill="#ffffff" d="M 298.410156 154.585938 L 298.410156 160.421875 L 292.574219 160.421875 L 292.574219 154.585938 Z M 292.574219 148.753906 L 292.574219 154.585938 L 298.410156 154.585938 L 298.410156 148.753906 Z M 292.574219 142.917969 L 292.574219 148.753906 L 298.410156 148.753906 L 298.410156 142.917969 Z M 286.742188 160.421875 L 286.742188 166.25 L 292.574219 166.25 L 292.574219 160.421875 Z M 286.742188 142.917969 L 286.742188 148.753906 L 292.574219 148.753906 L 292.574219 142.917969 Z M 280.914062 166.25 L 280.914062 172.082031 L 286.742188 172.082031 L 286.742188 166.25 Z M 280.914062 142.917969 L 280.914062 148.753906 L 286.742188 148.753906 L 286.742188 142.917969 Z M 275.078125 172.082031 L 275.078125 177.929688 L 280.914062 177.929688 L 280.914062 172.082031 Z M 275.078125 148.753906 L 275.078125 154.585938 L 280.914062 154.585938 L 280.914062 148.753906 Z M 269.246094 177.929688 L 269.246094 183.757812 L 275.078125 183.757812 L 275.078125 177.929688 Z M 269.246094 154.597656 L 269.246094 160.421875 L 275.078125 160.421875 L 275.078125 154.585938 Z M 263.410156 183.757812 L 263.410156 189.59375 L 269.246094 189.59375 L 269.246094 183.746094 Z M 263.410156 160.429688 L 263.410156 166.25 L 269.246094 166.25 L 269.246094 160.421875 Z M 257.582031 189.59375 L 257.582031 195.425781 L 263.410156 195.425781 L 263.410156 189.582031 Z M 257.582031 166.261719 L 257.582031 172.09375 L 263.410156 172.09375 L 263.410156 166.25 Z M 251.75 195.417969 L 251.75 201.246094 L 257.582031 201.246094 L 257.582031 195.417969 Z M 251.75 172.082031 L 251.75 177.929688 L 257.582031 177.929688 L 257.582031 172.082031 Z M 245.914062 201.246094 L 245.914062 207.082031 L 251.75 207.082031 L 251.75 201.246094 Z M 245.914062 177.917969 L 245.914062 183.746094 L 251.75 183.746094 L 251.75 177.929688 Z M 240.082031 207.082031 L 240.082031 212.914062 L 245.914062 212.914062 L 245.914062 207.082031 Z M 240.082031 183.746094 L 240.082031 189.582031 L 245.914062 189.582031 L 245.914062 183.746094 Z M 234.246094 212.914062 L 234.246094 218.75 L 240.082031 218.75 L 240.082031 212.914062 Z M 234.246094 189.582031 L 234.246094 195.417969 L 240.082031 195.417969 L 240.082031 189.582031 Z M 228.414062 218.75 L 228.414062 224.578125 L 234.246094 224.578125 L 234.246094 218.75 Z M 228.414062 195.417969 L 228.414062 201.246094 L 234.246094 201.246094 L 234.246094 195.417969 Z M 222.585938 224.578125 L 222.585938 230.410156 L 228.414062 230.410156 L 228.414062 224.578125 Z M 222.585938 201.246094 L 222.585938 207.082031 L 228.414062 207.082031 L 228.414062 201.246094 Z M 216.75 230.410156 L 216.75 236.246094 L 222.585938 236.246094 L 222.585938 230.410156 Z M 216.75 207.082031 L 216.75 212.914062 L 222.585938 212.914062 L 222.585938 207.082031 Z M 210.917969 212.914062 L 210.917969 218.75 L 216.75 218.75 L 216.75 212.914062 Z M 205.082031 218.75 L 205.082031 224.578125 L 210.917969 224.578125 L 210.917969 218.75 Z M 205.082031 218.75 " fill-opacity="1" fill-rule="nonzero"/><path fill="#f04d5e" d="M 199.421875 241.90625 L 199.421875 253.914062 L 193.589844 253.914062 L 193.589844 259.742188 L 187.753906 259.742188 L 187.753906 265.578125 L 175.75 265.578125 L 175.75 253.574219 L 181.585938 253.574219 L 181.585938 247.742188 L 187.417969 247.742188 L 187.417969 241.90625 Z M 199.421875 241.90625 " fill-opacity="1" fill-rule="nonzero"/><g clip-path="url(#id3)"><path fill="#3d3b52" d="M 298.410156 136.867188 L 280.695312 136.867188 L 280.695312 142.699219 L 274.867188 142.699219 L 274.867188 148.535156 L 269.027344 148.535156 L 269.027344 154.367188 L 263.191406 154.367188 L 263.191406 160.203125 L 257.363281 160.203125 L 257.363281 166.03125 L 251.527344 166.03125 L 251.527344 171.851562 L 245.691406 171.851562 L 245.691406 177.6875 L 239.863281 177.6875 L 239.863281 183.519531 L 234.027344 183.519531 L 234.027344 189.355469 L 228.195312 189.355469 L 228.195312 195.1875 L 222.367188 195.1875 L 222.367188 201.015625 L 216.53125 201.015625 L 216.53125 206.851562 L 210.699219 206.851562 L 210.699219 212.695312 L 204.863281 212.695312 L 204.863281 218.53125 L 193.640625 218.53125 L 193.640625 212.695312 L 187.804688 212.695312 L 187.804688 206.863281 L 175.699219 206.863281 L 175.699219 212.695312 L 169.867188 212.695312 L 169.867188 218.96875 L 175.699219 218.96875 L 175.699219 224.796875 L 181.535156 224.796875 L 181.535156 230.628906 L 187.367188 230.628906 L 187.367188 241.855469 L 181.535156 241.855469 L 181.535156 247.691406 L 175.699219 247.691406 L 175.699219 253.535156 L 169.867188 253.535156 L 169.867188 259.363281 L 158.203125 259.363281 L 158.203125 283.136719 L 181.976562 283.136719 L 181.976562 271.460938 L 187.804688 271.460938 L 187.804688 265.628906 L 193.640625 265.628906 L 193.640625 259.792969 L 199.472656 259.792969 L 199.472656 253.964844 L 210.699219 253.964844 L 210.699219 259.792969 L 216.53125 259.792969 L 216.53125 265.628906 L 222.367188 265.628906 L 222.367188 271.460938 L 228.628906 271.460938 L 228.628906 265.628906 L 234.46875 265.628906 L 234.46875 253.535156 L 228.628906 253.535156 L 228.628906 247.691406 L 222.804688 247.691406 L 222.804688 236.464844 L 228.628906 236.464844 L 228.628906 230.628906 L 234.46875 230.628906 L 234.46875 224.796875 L 240.304688 224.796875 L 240.304688 218.96875 L 246.132812 218.96875 L 246.132812 213.132812 L 251.96875 213.132812 L 251.96875 207.292969 L 257.800781 207.292969 L 257.800781 201.464844 L 263.628906 201.464844 L 263.628906 195.636719 L 269.46875 195.636719 L 269.46875 189.804688 L 275.300781 189.804688 L 275.300781 183.96875 L 281.136719 183.96875 L 281.136719 178.136719 L 286.964844 178.136719 L 286.964844 172.300781 L 292.796875 172.300781 L 292.796875 166.46875 L 298.628906 166.46875 L 298.628906 160.640625 L 304.460938 160.640625 L 304.460938 136.867188 Z M 175.699219 276.851562 L 164.476562 276.851562 L 164.476562 265.628906 L 169.878906 265.628906 L 169.878906 271.460938 L 175.699219 271.460938 Z M 199.035156 247.910156 L 199.035156 253.535156 L 193.1875 253.535156 L 193.1875 259.363281 L 187.367188 259.363281 L 187.367188 265.199219 L 176.140625 265.199219 L 176.140625 253.964844 L 181.976562 253.964844 L 181.976562 248.132812 L 187.804688 248.132812 L 187.804688 242.296875 L 199.035156 242.296875 Z M 228.195312 253.964844 L 228.195312 265.191406 L 222.796875 265.191406 L 222.796875 259.355469 L 216.96875 259.355469 L 216.96875 253.535156 L 211.136719 253.535156 L 211.136719 247.691406 L 205.300781 247.691406 L 205.300781 241.855469 L 199.472656 241.855469 L 199.472656 236.027344 L 193.640625 236.027344 L 193.640625 230.191406 L 187.804688 230.191406 L 187.804688 224.359375 L 181.976562 224.359375 L 181.976562 218.53125 L 176.140625 218.53125 L 176.140625 213.128906 L 187.367188 213.128906 L 187.367188 218.964844 L 193.1875 218.964844 L 193.1875 224.792969 L 199.019531 224.792969 L 199.019531 230.625 L 204.847656 230.625 L 204.847656 236.460938 L 210.683594 236.460938 L 210.683594 242.296875 L 216.515625 242.296875 L 216.515625 248.132812 L 222.351562 248.132812 L 222.351562 253.964844 Z M 298.191406 154.585938 L 298.191406 160.203125 L 292.355469 160.203125 L 292.355469 166.03125 L 286.523438 166.03125 L 286.523438 171.851562 L 280.695312 171.851562 L 280.695312 177.6875 L 274.867188 177.6875 L 274.867188 183.519531 L 269.027344 183.519531 L 269.027344 189.355469 L 263.191406 189.355469 L 263.191406 195.1875 L 257.363281 195.1875 L 257.363281 201.015625 L 251.527344 201.015625 L 251.527344 206.851562 L 245.691406 206.851562 L 245.691406 212.695312 L 239.863281 212.695312 L 239.863281 218.53125 L 234.027344 218.53125 L 234.027344 224.359375 L 228.195312 224.359375 L 228.195312 230.191406 L 222.367188 230.191406 L 222.367188 236.027344 L 211.136719 236.027344 L 211.136719 230.191406 L 205.300781 230.191406 L 205.300781 218.96875 L 211.136719 218.96875 L 211.136719 213.132812 L 216.96875 213.132812 L 216.96875 207.292969 L 222.804688 207.292969 L 222.804688 201.464844 L 228.628906 201.464844 L 228.628906 195.636719 L 234.46875 195.636719 L 234.46875 189.804688 L 240.304688 189.804688 L 240.304688 183.96875 L 246.132812 183.96875 L 246.132812 178.136719 L 251.96875 178.136719 L 251.96875 172.300781 L 257.800781 172.300781 L 257.800781 166.46875 L 263.628906 166.46875 L 263.628906 160.640625 L 269.46875 160.640625 L 269.46875 154.804688 L 275.300781 154.804688 L 275.300781 148.972656 L 281.136719 148.972656 L 281.136719 143.136719 L 298.191406 143.136719 Z M 298.191406 154.585938 " fill-opacity="1" fill-rule="nonzero"/></g></svg>