<svg id="Layer_1" data-name="Layer 1" xmlns="http://www.w3.org/2000/svg" viewBox="0 0 314.17 224.5"><defs><style>.cls-1{fill:#d88b0f}.cls-2{fill:#fff}.cls-10,.cls-2{stroke:#232323}.cls-10,.cls-2,.cls-4{stroke-linecap:round;stroke-linejoin:round;stroke-width:5px}.cls-10,.cls-4{fill:none}.cls-4{stroke:#fff}.cls-11{fill:#232323}</style></defs><path class="cls-2" d="M242 151.15l25.1-2.25s16.51 23.49 47.4 15.32 36-42.89 27.32-60-35.62-24.59-54.94-18.63c-22.19 6.84-34.67 33.59-27.83 48.51z" transform="translate(-33.88 -43.6)"/><path d="M266.36 74.33s-6.81-5.62-14.55-1.2-8.77 19 21.95 24.34c0 0 22.13-22.55 11.75-31.83s-19.15 8.69-19.15 8.69z" fill="#ffc13a" stroke-linejoin="round" stroke-width="5" stroke-linecap="round" stroke="#232323"/><path class="cls-4" d="M312.66 112.22s3.58 1.37 2.3 7.24" transform="translate(-33.88 -43.6)"/><path class="cls-4" d="M276.82 84.88l.51-.77"/><path d="M97.34 100.66l-9.1-12L85 70.35l-2.37-15.53-11.07-8-13.11 3.28-4.77 17.62 4.26 18.55 3.71 9.13 7.44 6.78 5.62 3.82 6.46 3.15 4.87 1.9L85 115l-32.33 45.64-9.8 17-5.44 15.48 2.92 5.53 6.58-.5 2 2.08-6.44 20.27 2.81 10.08 4 3.53 8.37 6 7 4 5.68.85 4.11 6.68 7.43 8.45 7.28 3.91 7.4 2 9.71-.89s10.5-2.38 10.69-2.46 8.21-4.67 8.21-4.67l2.7-4 9.25-1.8 10.09 1 9 1.53 8.1 6.15 21.22 2.75 11.72-5.9 6-4.09 3.63-6.25 4.12-3.7 11.69-3.48 13.3-10.8 3.1-10-2.38-8.68-3.23-8.51 1.19-4 7 1.21 2.21-4.19-6.48-17.69-19.5-31.69L199 119.67l-5.28-5.26 2.22-3.53 11.26-4.5 10.64-8.16 6.15-12 2.66-12.77-.89-13.07-4.6-10.8-8-3.71-11.75 3.19-5.48 8.3-1.51 13.82-1.27 13-6 13.61-4 2.88-8.79-.34L161 97.41l-17.56-1.72-22.6 1.31-18.3 5.14-5.2-1.44" transform="translate(-33.88 -43.6)" fill="#ffa401"/><path fill="#e56467" d="M94.97 153.4l.12 6.1 4.41 8.87 3.28 3.2 5.11.88 5.7-2.29 2.57-3.92 1.51-7.66 1.85-2.97-3.36-3.5-7.51-4.93h-4.77l-2.38 3.66-6.53 2.56"/><ellipse cx="105.93" cy="117.94" rx="32.94" ry="15.19" fill="#a585db"/><path d="M104.33 101.2s64.21 5.69 69.19 2.24-13.59-5.28-13.59-5.28l-40.11-.45-16.33 2.92m96.58-49.51s16-6.26 17.1 8.93a122.31 122.31 0 005.18 27.07l1.72-14.43.91-8.8-1.95-8-5.33-7.76-9.59-1.77zM58 52.05s16.68 0 17.19 24S92.05 97 92.05 97l-4.52-7.89-1.71-9-1-12-1.11-7.64-1.3-7-4.28-4-9.17-3.44-7.18 2.47M221.7 152.42s13.32 44.16 17.5 45.69 2.73-4.25 2.73-4.25L239 184m-55.14 34s22.85 12.91 23.29 22.61-3.76-17.1-3.76-17.1L196.8 218l-4.14-.88h-7.53m-81.76 6.34s9.25.7 10.21 7.85 16.53 8 17.23 13 1.25-6.68 1.25-6.68l-4.31-5.39-4.66-3.06-5.38 3-2.47-6.38-1.66-3.9z" transform="translate(-33.88 -43.6)" fill="#ffc25f"/><path class="cls-1" d="M72.79 232.52s9.45 29.33 31.53 30.94-14.93 1.36-14.93 1.36l-11.54-8.63s-4.83-5.7-5.06-6.07-5.1-6.24-5.1-6.24l-11.07-4.24L45 230.79" transform="translate(-33.88 -43.6)"/><path class="cls-1" d="M111.68 199.08l-15.41 6.31v3.83l16.63-.09 1.79-3.59-3.65-6.46m62.8-9.09l18.39.93-7.69 8.6-11.24.68 1.06-8.6"/><path class="cls-1" d="M146.58 238.69s22.11 22.61 32 23.6-12.8-1.11-12.8-1.11l-6.58-3.94-7.69-5-5-4.5-3.19-7.31m-20.8-40.21s5.48 18.26 11.68 18.64 5.44-2.61 5.44-2.61l-8.57-6.71-3-6.7-1.85-3.63-5.3.31m69.13-108.47s8.55 12.47 1.85 12.6-10.41-4.92-10.21-5 3.76-2.16 3.76-2.16l2.94-2.89 1.21-3.7M53.68 67.72s16.05 31.14 25 33.57 6 9.23 6 9.23l-11.34-4-7.68-4.9-6.25-6.89L54.18 82l-.5-9.29zm18.02 64.02s-24.78 55.31-23.29 64-2.63 1.91-2.63 1.91l-4.53 1.51-5-5.25 1.27-6.91 6-13.1 14.73-23.74" transform="translate(-33.88 -43.6)"/><path class="cls-1" d="M48.78 197.67s-.12 28 6.86 30 18.19 2.17 18.19 2.17l-7.29 8.81s-8.68-4-9.54-4.17-9.7-3.73-9.7-3.73l-5.3-4.39-.72-3.25" transform="translate(-33.88 -43.6)"/><path d="M31.31 159.06l-4.85 9.83m16.07-7.83l-4.85 9.83m127.57-13.16l7.15 14.49m4.99-17.25l7.15 14.49" stroke="#f4e977" stroke-miterlimit="10" stroke-width="8" fill="none" stroke-linecap="round"/><path class="cls-10" d="M99.43 228.05s.89-9.44-10.6-10.08S68.54 235.2 72 247.46s17.49 17.87 25.28 18.13 27.19-2.56 34-16.86-9.83-24.63-14.17-16.59c0 0 0-11.11-6.9-11.87s-10.78 7.78-10.78 7.78zm79.57-2.13s-.89-9.45 10.6-10.09 20.29 17.24 16.85 29.49-17.49 17.87-25.28 18.13-27.19-2.55-34-16.85S157 222 161.33 230c0 0 0-11.1 6.9-11.87s10.77 7.79 10.77 7.79z" transform="translate(-33.88 -43.6)"/><path class="cls-10" d="M96.27 208.65l19.28-.59"/><ellipse class="cls-2" cx="97.02" cy="151.15" rx="27.18" ry="22.98" transform="rotate(-74.27 51.288 151.726)"/><ellipse class="cls-2" cx="181.02" cy="150.15" rx="22.98" ry="27.18" transform="matrix(.96 -.27 .27 .96 -67.81 11.11)"/><ellipse class="cls-11" cx="74.02" cy="104.2" rx="10.89" ry="18.13"/><ellipse class="cls-11" cx="136.25" cy="104.2" rx="10.89" ry="18.13"/><path class="cls-11" d="M160.11 171.05c0 5.19-9.25 9.39-20.66 9.39a38.24 38.24 0 01-13.26-2.19c-4.52-1.72-7.4-4.31-7.4-7.2 0-5.18 9.25-9.38 20.66-9.38s20.66 4.2 20.66 9.38z" transform="translate(-33.88 -43.6)"/><ellipse class="cls-11" cx="105.57" cy="136.07" rx="10.6" ry="7.53"/><path class="cls-10" d="M109.09 189.5s4.43.43 8.94-4.85m43.23 0s6.47 4.17 10.3 3.4" transform="translate(-33.88 -43.6)"/><path class="cls-10" d="M114.6 187.71s2.87 11.24 8.11 11.17 17.29-7.8 17.68-12.48m26.02.83s-1.26 11.78-7.16 12-18-5.81-18.86-13.27" transform="translate(-33.88 -43.6)"/><path class="cls-10" d="M127.37 197.67s4.15 18.83 13 18.57 13-18.16 13-18.16M95 119.16s9.58-8.43 17-7.53m66.62 6.07s-9.57-8.43-17-7.53m-29.89 13.12s.47 4.25-2.87 10.81m17.65-10.81s-.47 4.25 2.87 10.81" transform="translate(-33.88 -43.6)"/><path class="cls-10" d="M105.23 79.14v11.93"/><path class="cls-10" d="M207.37 244.52c9 .27 20.08-8.42 26-13.73a11.48 11.48 0 003.53-10.8c-2-10-7.79-23.47-7.79-23.47 43.66 17.11-37.7-85.91-37.7-85.91 12.17.25 25.19-11 31-23.49s5.7-42.26-12.94-41-14.74 23.51-17.68 39.08-13.66 16.09-13.66 16.09-38.15-13.92-77.93 0c0 0-10.73-.51-13.66-16.09s1-37.78-17.62-39.06S50.2 74.61 56 87.12s18.81 23.74 31 23.49c0 0-81.36 103-37.7 85.91 0 0-5.78 13.5-7.79 23.47a11.48 11.48 0 003.49 10.8c5.88 5.31 16.91 14 26 13.73" transform="translate(-33.88 -43.6)"/></svg>